#!OML:ASF E:\acrobat2\Project_11_07_03\Capture day 1\Session 1\Acrobat.ASF
:FULLY-SPECIFIED
:DEGREES
678
root 5.20385 9.33725 15.1752 23.7532 9.61046 -2.18831
lowerback 53.9886 -0.678194 -2.0036
upperback 18.1092 -1.55932 -2.13757
thorax -0.766901 -0.566213 -0.815584
lowerneck 4.34748 -2.12687 -2.3277
upperneck -17.4796 -2.771 2.9401
head -5.91578 -1.44883 1.49327
rclavicle 3.18055e-015 7.85199e-015
rhumerus 67.9724 4.03296 -61.0755
rradius 38.134
rwrist 354.829
rhand -1.90436 -38.747
rfingers 7.12502
rthumb 23.7651 292.703
lclavicle 3.18055e-015 7.85199e-015
lhumerus 69.186 -10.127 57.0734
lradius 46.611
lwrist 2.38605
lhand -47.4283 -39.5351
lfingers 7.12502
lthumb -20.119 -10.5569
rfemur -119.696 -38.1504 29.1312
rtibia 54.414
rfoot -207.829 6.76346
rtoes -9.92813
lfemur -131.435 37.1817 -37.0844
ltibia 53.0711
lfoot -538.888 19.4165
ltoes 37.5524
679
root 5.21948 9.52312 15.1861 24.003 9.41638 -2.15281
lowerback 53.131 -0.65681 -2.19029
upperback 17.891 -1.63078 -2.2243
thorax -0.939682 -0.609834 -0.788999
lowerneck 3.86829 -1.9359 -2.72416
upperneck -18.1437 -2.577 2.64836
head -6.04713 -1.29738 1.45742
rclavicle 3.73715e-014 -1.09332e-014
rhumerus 69.3725 4.31834 -57.6879
rradius 34.149
rwrist 350.669
rhand 2.97365 -40.9453
rfingers 7.12502
rthumb 28.4354 291.195
lclavicle 3.73715e-014 -1.09332e-014
lhumerus 69.9884 -10.1598 55.2273
lradius 42.7691
lwrist 5.00382
lhand -45.8067 -38.3776
lfingers 7.12502
lthumb -18.5598 -9.24299
rfemur -118.255 -38.0075 28.3681
rtibia 55.778
rfoot -206.685 6.30068
rtoes -11.4178
lfemur -130.664 37.3854 -37.0162
ltibia 53.9645
lfoot -537.548 18.7377
ltoes 37.4949
680
root 5.23573 9.7116 15.1958 24.2627 9.17658 -2.09863
lowerback 52.1951 -0.611572 -2.3998
upperback 17.6573 -1.68107 -2.29112
thorax -1.1112 -0.647231 -0.73699
lowerneck 3.50008 -1.70799 -3.08735
upperneck -19.0748 -2.3377 2.30436
head -6.28652 -1.11665 1.40145
rclavicle -2.62396e-014 -3.47873e-015
rhumerus 70.6217 4.69365 -53.4244
rradius 30.4626
rwrist 346.422
rhand 7.10658 -43.7393
rfingers 7.12502
rthumb 32.3771 289.131
lclavicle -2.62396e-014 -3.47873e-015
lhumerus 70.7836 -10.2204 53.0616
lradius 38.8779
lwrist 7.1581
lhand -43.698 -35.798
lfingers 7.12502
lthumb -16.5305 -6.48209
rfemur -116.861 -37.8234 27.6314
rtibia 57.1613
rfoot -205.592 5.78609
rtoes -12.4042
lfemur -129.884 37.6191 -37.0143
ltibia 54.9071
lfoot -536.165 18.1592
ltoes 37.8758
681
root 5.25237 9.90274 15.2053 24.5566 8.89642 -2.03817
lowerback 51.1581 -0.540568 -2.63757
upperback 17.423 -1.70791 -2.34277
thorax -1.25965 -0.677286 -0.662893
lowerneck 3.23702 -1.44791 -3.32564
upperneck -20.2617 -2.06103 1.87901
head -6.63236 -0.912864 1.29913
rclavicle -3.18055e-015 -1.61513e-014
rhumerus 71.4737 5.26224 -47.8795
rradius 27.6391
rwrist 343.141
rhand 9.78294 -45.936
rfingers 7.12502
rthumb 34.9204 287.489
lclavicle -3.18055e-015 -1.61513e-014
lhumerus 71.5808 -10.3174 50.588
lradius 34.9823
lwrist 8.80219
lhand -40.7533 -32.0359
lfingers 7.12502
lthumb -13.6939 -2.50643
rfemur -115.537 -37.5871 26.9775
rtibia 58.5666
rfoot -204.592 5.26815
rtoes -13.1675
lfemur -129.086 37.8868 -37.0631
ltibia 55.9294
lfoot -534.776 17.7284
ltoes 38.5102
682
root 5.26964 10.0969 15.2163 24.8867 8.58413 -1.99336
lowerback 50.0282 -0.455962 -2.8965
upperback 17.1948 -1.7209 -2.39428
thorax -1.37563 -0.702813 -0.582408
lowerneck 3.02929 -1.15553 -3.3771
upperneck -21.6245 -1.74556 1.36066
head -7.05282 -0.68907 1.13185
rclavicle -3.18055e-014 -2.76311e-014
rhumerus 71.7715 6.16961 -40.6084
rradius 26.1854
rwrist 341.828
rhand 11.3629 -46.6932
rfingers 7.12502
rthumb 36.4178 287.094
lclavicle -3.18055e-014 -2.76311e-014
lhumerus 72.3619 -10.4368 47.7885
lradius 31.1427
lwrist 9.86526
lhand -36.5946 -27.4827
lfingers 7.12502
lthumb -9.68349 2.2747
rfemur -114.268 -37.3022 26.4396
rtibia 60.0055
rfoot -203.694 4.7606
rtoes -13.906
lfemur -128.255 38.2032 -37.1386
ltibia 57.0428
lfoot -533.443 17.4536
ltoes 39.1268
683
root 5.28833 10.2944 15.2307 25.2426 8.27914 -1.99604
lowerback 48.8347 -0.410465 -3.11944
upperback 16.9687 -1.75679 -2.47596
thorax -1.46757 -0.73531 -0.540881
lowerneck 2.83006 -0.820707 -3.2423
upperneck -23.0772 -1.3653 0.804181
head -7.51227 -0.439565 0.911259
rclavicle -5.24792e-014 -3.97973e-014
rhumerus 71.5894 7.48591 -31.5214
rradius 26.263
rwrist 343.22
rhand 11.8206 -45.5777
rfingers 7.12502
rthumb 36.851 288.319
lclavicle -5.24792e-014 -3.97973e-014
lhumerus 73.0299 -10.5696 44.534
lradius 27.5491
lwrist 10.2986
lhand -30.9214 -22.6124
lfingers 7.12502
lthumb -4.20719 7.32575
rfemur -113.001 -37.011 26.0378
rtibia 61.507
rfoot -202.898 4.229
rtoes -14.6256
lfemur -127.367 38.5618 -37.187
ltibia 58.2474
lfoot -532.218 17.305
ltoes 39.4701
684
root 5.30904 10.4953 15.2494 25.6129 8.01704 -2.06223
lowerback 46.6873 -0.49972 -3.1938
upperback 17.5985 -1.82064 -2.7038
thorax -1.5032 -0.787508 -0.588178
lowerneck 2.62399 -0.437454 -2.96493
upperneck -24.544 -0.896368 0.28614
head -7.9821 -0.160126 0.665035
rclavicle 3.18055e-014 1.98785e-015
rhumerus 71.2847 8.91047 -22.6144
rradius 27.024
rwrist 349.645
rhand 12.3185 -42.8418
rfingers 7.12502
rthumb 37.3219 291.178
lclavicle 3.18055e-014 1.98785e-015
lhumerus 73.4077 -10.7698 40.5817
lradius 24.5649
lwrist 10.1263
lhand -23.7046 -17.8555
lfingers 7.12502
lthumb 2.76265 12.1063
rfemur -111.692 -36.7437 25.7707
rtibia 63.086
rfoot -202.225 3.63041
rtoes -15.235
lfemur -126.409 38.9428 -37.1727
ltibia 59.5356
lfoot -531.098 17.3027
ltoes 39.564
685
root 5.33236 10.6997 15.2728 25.9799 7.80847 -2.19524
lowerback 45.5747 -0.617273 -3.24354
upperback 17.2539 -1.97684 -2.87497
thorax -1.63793 -0.860526 -0.682446
lowerneck 2.39579 -0.011212 -2.59032
upperneck -25.953 -0.338425 -0.161432
head -8.43379 0.145522 0.410143
rclavicle -6.36111e-015 1.08338e-014
rhumerus 70.939 9.97346 -16.3542
rradius 27.8151
rwrist 362.549
rhand 14.8443 -39.0684
rfingers 7.12502
rthumb 39.7051 295.617
lclavicle -6.36111e-015 1.08338e-014
lhumerus 73.3633 -11.1764 35.3901
lradius 22.6289
lwrist 9.76825
lhand -15.3565 -13.5956
lfingers 7.12502
lthumb 10.8209 16.1057
rfemur -110.293 -36.5056 25.6039
rtibia 64.7381
rfoot -201.692 2.92228
rtoes -15.554
lfemur -125.389 39.3278 -37.1092
ltibia 60.891
lfoot -530.109 17.4183
ltoes 39.3801
686
root 5.35939 10.9069 15.3011 26.3303 7.64921 -2.41364
lowerback 44.5117 -0.810412 -3.18812
upperback 16.8701 -2.18545 -3.06401
thorax -1.82116 -0.952019 -0.829538
lowerneck 2.14243 0.450648 -2.16673
upperneck -27.2583 0.296032 -0.542774
head -8.84909 0.472564 0.154841
rclavicle -1.59028e-014 -4.01545e-014
rhumerus 70.3619 10.5393 -13.2869
rradius 28.9197
rwrist 378.549
rhand 19.4007 -34.5884
rfingers 7.12502
rthumb 43.9764 301.52
lclavicle -1.59028e-014 -4.01545e-014
lhumerus 72.9476 -12.0053 28.1582
lradius 22.0542
lwrist 10.1226
lhand -6.7328 -10.0834
lfingers 7.12502
lthumb 19.1278 18.996
rfemur -108.776 -36.2741 25.5162
rtibia 66.4617
rfoot -201.285 2.10857
rtoes -15.5994
lfemur -124.322 39.7267 -36.9911
ltibia 62.273
lfoot -529.214 17.6336
ltoes 39.1715
687
root 5.391 11.1168 15.3337 26.6538 7.52159 -2.73164
lowerback 43.5017 -1.0376 -3.04895
upperback 16.4515 -2.40614 -3.20963
thorax -2.04703 -1.04895 -0.969447
lowerneck 1.88173 0.938095 -1.75561
upperneck -28.4504 0.977225 -0.895384
head -9.22612 0.814985 -0.0993828
rclavicle -1.43125e-014 -6.08281e-014
rhumerus 69.5771 10.8337 -12.2612
rradius 30.7124
rwrist 391.706
rhand 23.7393 -29.9304
rfingers 7.12502
rthumb 48.0012 307.857
lclavicle -1.43125e-014 -6.08281e-014
lhumerus 72.6602 -13.0471 21.879
lradius 20.8893
lwrist 8.71865
lhand 1.47288 -8.54147
lfingers 7.12502
lthumb 27.0004 19.5489
rfemur -107.137 -36.0139 25.489
rtibia 68.2545
rfoot -200.964 1.19762
rtoes -15.4394
lfemur -123.244 40.1499 -36.8459
ltibia 63.6627
lfoot -528.392 17.9134
ltoes 39.1133
